<?xml version="1.0" standalone="no" ?>
<!DOCTYPE svg PUBLIC "-//W3C//DTD SVG 1.1//EN" "http://www.w3.org/Graphics/SVG/1.1/DTD/svg11.dtd">
<svg width="910px" height="1460px" xmlns="http://www.w3.org/2000/svg" version="1.1" >
	<polygon points="0,0 910,0 910,1460 0,1460 " fill="none" stroke-width="1" stroke="rgb(0,128,0)" />
	<rect x="330" y="30" width="250" height="50" fill="rgb(255,255,255)" stroke-width="3" stroke="rgb(0,0,0)" />
	<text x="361" y="55" fill="rgb(0,0,0)" font-size="12" font-family="Verdana" >mseBackward (row=1,col=1)</text>
	<rect x="180" y="180" width="250" height="50" fill="rgb(255,255,255)" stroke-width="3" stroke="rgb(0,0,0)" />
	<text x="211" y="205" fill="rgb(0,0,0)" font-size="12" font-family="Verdana" >addMmBackward (row=5,col=1)</text>
	<rect x="480" y="180" width="250" height="50" fill="rgb(255,255,255)" stroke-width="3" stroke="rgb(0,0,0)" />
	<text x="511" y="205" fill="rgb(0,0,0)" font-size="12" font-family="Verdana" >none (row=5,col=1)</text>
	<rect x="30" y="330" width="250" height="50" fill="rgb(255,255,255)" stroke-width="3" stroke="rgb(0,0,0)" />
	<text x="61" y="355" fill="rgb(0,0,0)" font-size="12" font-family="Verdana" >accumulateGrad (row=1,col=1)</text>
	<rect x="330" y="330" width="250" height="50" fill="rgb(255,255,255)" stroke-width="3" stroke="rgb(0,0,0)" />
	<text x="361" y="355" fill="rgb(0,0,0)" font-size="12" font-family="Verdana" >reluBackward (row=5,col=32)</text>
	<rect x="630" y="330" width="250" height="50" fill="rgb(255,255,255)" stroke-width="3" stroke="rgb(0,0,0)" />
	<text x="661" y="355" fill="rgb(0,0,0)" font-size="12" font-family="Verdana" >transposeBackward (row=32,col=1)</text>
	<rect x="180" y="480" width="250" height="50" fill="rgb(255,255,255)" stroke-width="3" stroke="rgb(0,0,0)" />
	<text x="211" y="505" fill="rgb(0,0,0)" font-size="12" font-family="Verdana" >addMmBackward (row=5,col=32)</text>
	<rect x="480" y="480" width="250" height="50" fill="rgb(255,255,255)" stroke-width="3" stroke="rgb(0,0,0)" />
	<text x="511" y="505" fill="rgb(0,0,0)" font-size="12" font-family="Verdana" >accumulateGrad (row=1,col=32)</text>
	<rect x="30" y="630" width="250" height="50" fill="rgb(255,255,255)" stroke-width="3" stroke="rgb(0,0,0)" />
	<text x="61" y="655" fill="rgb(0,0,0)" font-size="12" font-family="Verdana" >accumulateGrad (row=32,col=1)</text>
	<rect x="330" y="630" width="250" height="50" fill="rgb(255,255,255)" stroke-width="3" stroke="rgb(0,0,0)" />
	<text x="361" y="655" fill="rgb(0,0,0)" font-size="12" font-family="Verdana" >reluBackward (row=5,col=64)</text>
	<rect x="630" y="630" width="250" height="50" fill="rgb(255,255,255)" stroke-width="3" stroke="rgb(0,0,0)" />
	<text x="661" y="655" fill="rgb(0,0,0)" font-size="12" font-family="Verdana" >transposeBackward (row=64,col=32)</text>
	<rect x="180" y="780" width="250" height="50" fill="rgb(255,255,255)" stroke-width="3" stroke="rgb(0,0,0)" />
	<text x="211" y="805" fill="rgb(0,0,0)" font-size="12" font-family="Verdana" >addMmBackward (row=5,col=64)</text>
	<rect x="480" y="780" width="250" height="50" fill="rgb(255,255,255)" stroke-width="3" stroke="rgb(0,0,0)" />
	<text x="511" y="805" fill="rgb(0,0,0)" font-size="12" font-family="Verdana" >accumulateGrad (row=32,col=64)</text>
	<rect x="30" y="930" width="250" height="50" fill="rgb(255,255,255)" stroke-width="3" stroke="rgb(0,0,0)" />
	<text x="61" y="955" fill="rgb(0,0,0)" font-size="12" font-family="Verdana" >accumulateGrad (row=64,col=1)</text>
	<rect x="330" y="930" width="250" height="50" fill="rgb(255,255,255)" stroke-width="3" stroke="rgb(0,0,0)" />
	<text x="361" y="955" fill="rgb(0,0,0)" font-size="12" font-family="Verdana" >reluBackward (row=5,col=64)</text>
	<rect x="630" y="930" width="250" height="50" fill="rgb(255,255,255)" stroke-width="3" stroke="rgb(0,0,0)" />
	<text x="661" y="955" fill="rgb(0,0,0)" font-size="12" font-family="Verdana" >transposeBackward (row=64,col=64)</text>
	<rect x="180" y="1080" width="250" height="50" fill="rgb(255,255,255)" stroke-width="3" stroke="rgb(0,0,0)" />
	<text x="211" y="1105" fill="rgb(0,0,0)" font-size="12" font-family="Verdana" >addMmBackward (row=5,col=64)</text>
	<rect x="480" y="1080" width="250" height="50" fill="rgb(255,255,255)" stroke-width="3" stroke="rgb(0,0,0)" />
	<text x="511" y="1105" fill="rgb(0,0,0)" font-size="12" font-family="Verdana" >accumulateGrad (row=64,col=64)</text>
	<rect x="30" y="1230" width="250" height="50" fill="rgb(255,255,255)" stroke-width="3" stroke="rgb(0,0,0)" />
	<text x="61" y="1255" fill="rgb(0,0,0)" font-size="12" font-family="Verdana" >accumulateGrad (row=64,col=1)</text>
	<rect x="330" y="1230" width="250" height="50" fill="rgb(255,255,255)" stroke-width="3" stroke="rgb(0,0,0)" />
	<text x="361" y="1255" fill="rgb(0,0,0)" font-size="12" font-family="Verdana" >none (row=5,col=11)</text>
	<rect x="630" y="1230" width="250" height="50" fill="rgb(255,255,255)" stroke-width="3" stroke="rgb(0,0,0)" />
	<text x="661" y="1255" fill="rgb(0,0,0)" font-size="12" font-family="Verdana" >transposeBackward (row=11,col=64)</text>
	<rect x="330" y="1380" width="250" height="50" fill="rgb(255,255,255)" stroke-width="3" stroke="rgb(0,0,0)" />
	<text x="361" y="1405" fill="rgb(0,0,0)" font-size="12" font-family="Verdana" >accumulateGrad (row=64,col=11)</text>
	<polygon points="755,1280 455,1380 474,1382 455,1380 468,1366 455,1380 755,1280 " fill="none" stroke-width="0.5" stroke="rgb(0,0,255)" />
	<polygon points="455,980 305,1080 324,1077 305,1080 314,1062 305,1080 455,980 " fill="none" stroke-width="0.5" stroke="rgb(0,0,255)" />
	<polygon points="455,80 305,180 324,177 305,180 314,162 305,180 455,80 " fill="none" stroke-width="0.5" stroke="rgb(0,0,255)" />
	<polygon points="455,80 605,180 595,162 605,180 585,177 605,180 455,80 " fill="none" stroke-width="0.5" stroke="rgb(0,0,255)" />
	<polygon points="305,230 155,330 174,327 155,330 164,312 155,330 305,230 " fill="none" stroke-width="0.5" stroke="rgb(0,0,255)" />
	<polygon points="305,230 455,330 445,312 455,330 435,327 455,330 305,230 " fill="none" stroke-width="0.5" stroke="rgb(0,0,255)" />
	<polygon points="305,230 755,330 739,317 755,330 735,334 755,330 305,230 " fill="none" stroke-width="0.5" stroke="rgb(0,0,255)" />
	<polygon points="755,680 605,780 624,777 605,780 614,762 605,780 755,680 " fill="none" stroke-width="0.5" stroke="rgb(0,0,255)" />
	<polygon points="755,380 605,480 624,477 605,480 614,462 605,480 755,380 " fill="none" stroke-width="0.5" stroke="rgb(0,0,255)" />
	<polygon points="305,1130 155,1230 174,1227 155,1230 164,1212 155,1230 305,1130 " fill="none" stroke-width="0.5" stroke="rgb(0,0,255)" />
	<polygon points="305,1130 455,1230 445,1212 455,1230 435,1227 455,1230 305,1130 " fill="none" stroke-width="0.5" stroke="rgb(0,0,255)" />
	<polygon points="305,1130 755,1230 739,1217 755,1230 735,1234 755,1230 305,1130 " fill="none" stroke-width="0.5" stroke="rgb(0,0,255)" />
	<polygon points="455,680 305,780 324,777 305,780 314,762 305,780 455,680 " fill="none" stroke-width="0.5" stroke="rgb(0,0,255)" />
	<polygon points="305,830 155,930 174,927 155,930 164,912 155,930 305,830 " fill="none" stroke-width="0.5" stroke="rgb(0,0,255)" />
	<polygon points="305,830 455,930 445,912 455,930 435,927 455,930 305,830 " fill="none" stroke-width="0.5" stroke="rgb(0,0,255)" />
	<polygon points="305,830 755,930 739,917 755,930 735,934 755,930 305,830 " fill="none" stroke-width="0.5" stroke="rgb(0,0,255)" />
	<polygon points="455,380 305,480 324,477 305,480 314,462 305,480 455,380 " fill="none" stroke-width="0.5" stroke="rgb(0,0,255)" />
	<polygon points="755,980 605,1080 624,1077 605,1080 614,1062 605,1080 755,980 " fill="none" stroke-width="0.5" stroke="rgb(0,0,255)" />
	<polygon points="305,530 155,630 174,627 155,630 164,612 155,630 305,530 " fill="none" stroke-width="0.5" stroke="rgb(0,0,255)" />
	<polygon points="305,530 455,630 445,612 455,630 435,627 455,630 305,530 " fill="none" stroke-width="0.5" stroke="rgb(0,0,255)" />
	<polygon points="305,530 755,630 739,617 755,630 735,634 755,630 305,530 " fill="none" stroke-width="0.5" stroke="rgb(0,0,255)" />
</svg>
